<svg id="Capa_1" enable-background="new 0 0 512 512" height="512" viewBox="0 0 512 512" width="512" xmlns="http://www.w3.org/2000/svg"><g><g><path d="m307.947 175.141h83.011v30h-83.011z"/><path d="m307.939 117.67h83.012v30h-83.012z"/><path d="m121.7 175.141h83.011v30h-83.011z"/><path d="m121.692 117.67h83.012v30h-83.012z"/></g><path d="m512 0h-512v442.309h176.74l-.283.774c-8.513 23.277-30.885 38.917-55.67 38.917h-6.273v30h282.278v-30h-6.273c-24.785 0-47.157-15.64-55.671-38.917l-.283-.774h177.435zm-30 30v322.722h-452v-322.722zm-175.326 423.388c3.925 10.733 9.815 20.381 17.159 28.612h-136.36c7.344-8.231 13.233-17.879 17.159-28.612l4.052-11.079h93.938zm-276.674-41.079v-29.587h452v29.587z"/><path d="m451.996 58.924h-144.854c-20.487 0-38.82 9.394-50.922 24.099-12.102-14.705-30.434-24.099-50.921-24.099h-145.295v262.276h391.992zm-144.854 30h114.854v146.386h-114.854c-13.237 0-25.573 3.92-35.912 10.661v-121.117c0-.129-.009-.256-.01-.385.208-19.634 16.238-35.545 35.922-35.545zm-217.138 0h115.295c19.683 0 35.713 15.911 35.921 35.546-.001.129-.01.256-.01.385v121.115c-10.339-6.74-22.675-10.661-35.911-10.661h-115.295zm0 176.386h115.295c16.328 0 30.137 10.951 34.493 25.891h-149.788zm182.644 25.89c4.356-14.94 18.166-25.891 34.494-25.891h114.854v25.891z"/></g></svg>